HIERARCHY
ROOT Hips
{
	OFFSET	0.00	0.00	0.00
	CHANNELS 6 Xposition Yposition Zposition Zrotation Xrotation Yrotation
	JOINT LeftUpLeg
	{
		OFFSET	 0.126116	-0.014019	-0.065224
		CHANNELS 3 Zrotation Xrotation Yrotation
		JOINT LeftLeg
		{
			OFFSET	 0.000000	 0.000000	 0.569914
			CHANNELS 3 Zrotation Xrotation Yrotation
			JOINT LeftFoot
			{
				OFFSET	 0.000000	 0.000000	 0.544423
				CHANNELS 3 Zrotation Xrotation Yrotation
				JOINT LeftToeBase
				{
					OFFSET	 0.000000	 0.000000	 0.207117
					CHANNELS 3 Zrotation Xrotation Yrotation
					End Site
					{
						OFFSET	 0.000000	 0.000000	 0.207117
					}
				}
			}
		}
	}
	JOINT RightUpLeg
	{
		OFFSET	-0.124023	-0.008373	-0.065224
		CHANNELS 3 Zrotation Xrotation Yrotation
		JOINT RightLeg
		{
			OFFSET	 0.000000	 0.000000	 0.570047
			CHANNELS 3 Zrotation Xrotation Yrotation
			JOINT RightFoot
			{
				OFFSET	 0.000000	 0.000000	 0.544354
				CHANNELS 3 Zrotation Xrotation Yrotation
				JOINT RightToeBase
				{
					OFFSET	 0.000000	 0.000000	 0.207540
					CHANNELS 3 Zrotation Xrotation Yrotation
					End Site
					{
						OFFSET	 0.000000	 0.000000	 0.207540
					}
				}
			}
		}
	}
	JOINT Spine
	{
		OFFSET	 0.000184	-0.007763	 0.117403
		CHANNELS 3 Zrotation Xrotation Yrotation
		JOINT Spine1
		{
			OFFSET	 0.000000	 0.000000	 0.137269
			CHANNELS 3 Zrotation Xrotation Yrotation
			JOINT Spine2
			{
				OFFSET	 0.000000	 0.000000	 0.156879
				CHANNELS 3 Zrotation Xrotation Yrotation
				JOINT LeftShoulder
				{
					OFFSET	 0.080501	-0.002496	 0.160144
					CHANNELS 3 Zrotation Xrotation Yrotation
					JOINT LeftArm
					{
						OFFSET	 0.000000	 0.000000	 0.164363
						CHANNELS 3 Zrotation Xrotation Yrotation
						JOINT LeftForeArm
						{
							OFFSET	 0.000000	 0.000000	 0.364576
							CHANNELS 3 Zrotation Xrotation Yrotation
							JOINT LeftHand
							{
								OFFSET	 0.000000	 0.000000	 0.360812
								CHANNELS 3 Zrotation Xrotation Yrotation
								JOINT LeftHandIndex1
								{
									OFFSET	 0.000000	 0.000000	 0.086006
									CHANNELS 3 Zrotation Xrotation Yrotation
									JOINT LeftHandIndex2
									{
										OFFSET	 0.000000	 0.000000	 0.047236
										CHANNELS 3 Zrotation Xrotation Yrotation
										JOINT LeftHandIndex3
										{
											OFFSET	-0.004284	-0.000551	 0.038166
											CHANNELS 3 Zrotation Xrotation Yrotation
											End Site
											{
												OFFSET	-0.004284	-0.000551	 0.038166
											}
										}
									}
								}
							}
						}
					}
				}
				JOINT Neck
				{
					OFFSET	 0.000000	 0.000000	 0.176489
					CHANNELS 3 Zrotation Xrotation Yrotation
					JOINT Head
					{
						OFFSET	 0.000000	-0.001747	 0.077940
						CHANNELS 3 Zrotation Xrotation Yrotation
						End Site
						{
							OFFSET	 0.000000	-0.001747	 0.077940
						}
					}
				}
				JOINT RightShoulder
				{
					OFFSET	-0.080363	 0.000306	 0.159706
					CHANNELS 3 Zrotation Xrotation Yrotation
					JOINT RightArm
					{
						OFFSET	 0.000000	 0.000000	 0.164196
						CHANNELS 3 Zrotation Xrotation Yrotation
						JOINT RightForeArm
						{
							OFFSET	 0.000000	 0.000000	 0.365611
							CHANNELS 3 Zrotation Xrotation Yrotation
							JOINT RightHand
							{
								OFFSET	 0.000000	 0.000000	 0.360648
								CHANNELS 3 Zrotation Xrotation Yrotation
								JOINT RightHandIndex1
								{
									OFFSET	 0.000000	 0.000000	 0.069977
									CHANNELS 3 Zrotation Xrotation Yrotation
									JOINT RightHandIndex2
									{
										OFFSET	 0.000000	 0.000000	 0.052305
										CHANNELS 3 Zrotation Xrotation Yrotation
										JOINT RightHandIndex3
										{
											OFFSET	 0.009002	-0.000782	 0.042196
											CHANNELS 3 Zrotation Xrotation Yrotation
											End Site
											{
												OFFSET	 0.009002	-0.000782	 0.042196
											}
										}
									}
								}
							}
						}
					}
				}
			}
		}
	}
}
MOTION
Frames:    8
Frame Time: 0.03333334
-0.000453	 0.046024	 1.278967	-0.031342	 3.377593	 0.530628	-2.462799	-5.946257	 178.688600	 2.145787	-11.530860	 0.512527	-0.139735	 69.983020	 0.084334	-2.385833	 28.452750	 0.000004	 9.838304	-5.263248	-178.782500	-0.797846	-9.568335	 0.724166	 4.941231	 68.758320	 1.379606	 2.384659	 28.388700	-0.000001	-4.740159	 7.428771	 1.171438	-2.172358	-6.984897	-0.439873	 6.641482	 10.451620	-0.616774	-90.978680	 68.497020	-177.411300	-7.536760	 2.349815	-18.383340	 24.779550	-3.296010	-13.144740	-9.180199	-31.278900	-5.680824	-2.027600	 6.559038	 9.033609	-5.188889	 0.308190	 3.541030	-5.234859	 0.342567	 0.430617	 4.699409	 21.286710	-7.778292	 1.864749	-15.506050	 2.176464	 88.731740	 66.747060	 176.831800	 8.283294	 6.648178	 3.323238	-23.489690	-12.886800	 38.575920	 6.424659	-30.567060	 6.785134	 1.803333	 3.979147	-15.098590	 4.898592	 3.004813	-9.310344	 5.224449	 0.395017	 2.014677
-0.001095	 0.050312	 1.280200	 0.059704	 4.425673	 0.574520	-2.597195	-7.062653	 178.519000	 2.134827	-11.020890	 0.491861	-0.374177	 69.369790	 0.323554	-2.385833	 28.452750	 0.000004	 9.662193	-6.125824	-178.595200	-0.807369	-8.588254	 0.649157	 4.822940	 67.820970	 1.494468	 2.384659	 28.388700	-0.000001	-5.067146	 8.029887	 1.308308	-2.291285	-9.184619	-0.665676	 6.669988	 12.971680	-0.775630	-90.841110	 67.548690	-177.149000	-6.786155	 3.047741	-19.719570	 23.762090	-3.424144	-14.940190	-8.997024	-34.934640	-7.116716	-2.027600	 6.559038	 9.033609	-5.188889	 0.308190	 3.541030	-5.234859	 0.342567	 0.430617	 4.756598	 24.187090	-8.613218	 2.362318	-17.711910	 2.312412	 88.466110	 64.914470	 176.403400	 7.183693	 6.711745	 5.061757	-23.099900	-12.669500	 39.133920	 5.316078	-33.453750	 6.918301	 1.803333	 3.979147	-15.098590	 4.898592	 3.004813	-9.310344	 5.224449	 0.395017	 2.014677
-0.002210	 0.060506	 1.282112	 0.280762	 6.847931	 0.724870	-2.913912	-9.904624	 178.078300	 2.099778	-10.346200	 0.452202	-0.779835	 68.259500	 0.809549	-2.385832	 28.452790	-0.000001	 9.180482	-8.148613	-178.219900	-1.336086	-6.328219	 0.414587	 5.193015	 65.860510	 1.665565	 2.384659	 28.388700	-0.000001	-5.550277	 8.821048	 1.378574	-2.522111	-13.135540	-0.972785	 6.432614	 16.833380	-1.092707	-90.936680	 65.420050	-177.724100	-4.650658	 4.663193	-22.139350	 20.378250	-2.655540	-16.286210	-11.772780	-40.891380	-11.219440	-2.027600	 6.559038	 9.033609	-5.188889	 0.308190	 3.541030	-5.234859	 0.342567	 0.430617	 4.181309	 26.630280	-8.823922	 2.878897	-19.827800	 2.178817	 88.470450	 61.714190	 176.866200	 3.832369	 7.298445	 7.140686	-21.629420	-11.415810	 39.789790	 4.569276	-38.248120	 8.636568	 1.803333	 3.979147	-15.098590	 4.898592	 3.004813	-9.310344	 5.224449	 0.395017	 2.014677
-0.002702	 0.074175	 1.282009	 0.711358	 9.980178	 0.696197	-3.548961	-14.608660	 177.711200	 1.990631	-11.460610	 0.478561	-1.002457	 67.535320	 1.182493	-2.385833	 28.452760	 0.000004	 8.581584	-12.766520	-177.706600	-1.674802	-7.493367	 0.453269	 6.109510	 65.447860	 0.937724	 2.384659	 28.388700	-0.000001	-6.104579	 9.016637	 1.382918	-2.644879	-16.789000	-1.215931	 6.026346	 19.570470	-1.060687	-91.951210	 64.862380	 179.537900	-2.526861	 7.763928	-20.346820	 18.414160	-2.584830	-20.233480	-15.509380	-45.476920	-15.802960	-2.027600	 6.559038	 9.033609	-5.188889	 0.308190	 3.541030	-5.234859	 0.342567	 0.430617	 3.459794	 26.452200	-8.821346	 3.119566	-20.394920	 2.044327	 89.426160	 60.654890	 179.180200	-0.301511	 10.225550	 6.205177	-20.117580	-10.426430	 41.322270	 5.040822	-42.967440	 10.963970	 1.803333	 3.979147	-15.098590	 4.898592	 3.004813	-9.310344	 5.224449	 0.395017	 2.014677
-0.003496	 0.090119	 1.281678	 1.364540	 13.690580	 0.649061	-4.503707	-19.867120	 177.148500	 2.283269	-12.105750	 0.566598	-1.784562	 66.515270	 1.737731	-2.385832	 28.452790	-0.000001	 7.903217	-17.757350	-177.150200	-1.699768	-7.839750	 0.470673	 6.343485	 64.349480	 0.650682	 2.384659	 28.388700	-0.000001	-6.714057	 8.806420	 1.386465	-2.799934	-18.842840	-1.478727	 5.537936	 20.596270	-0.824971	-92.989100	 65.202840	 176.746500	-0.061159	 11.691110	-19.584790	 18.013990	-2.691442	-22.771890	-18.193820	-48.776640	-19.269620	-2.027600	 6.559038	 9.033609	-5.188889	 0.308190	 3.541030	-5.234859	 0.342567	 0.430617	 2.927742	 24.872070	-8.849067	 3.135979	-20.146790	 1.783691	 90.514600	 60.357730	-178.329400	-4.114119	 14.051040	 6.130839	-18.517630	-9.071912	 42.198590	 7.011019	-46.833630	 13.666280	 1.803333	 3.979147	-15.098590	 4.898592	 3.004813	-9.310344	 5.224449	 0.395017	 2.014677
-0.006252	 0.111400	 1.280486	 3.105431	 19.162120	 0.548222	-6.951374	-27.198420	 175.703500	 3.221980	-12.689990	 0.800321	-3.566139	 64.053950	 2.750094	-2.385833	 28.452760	 0.000004	 6.130513	-25.005600	-176.850100	-1.664848	-8.869986	 0.537461	 6.259884	 62.479720	 0.611082	 2.384659	 28.388700	-0.000001	-7.802500	 8.261363	 1.211054	-3.421585	-19.695220	-1.605653	 4.788871	 20.059060	-1.045981	-93.946080	 65.670330	 174.047500	 3.624382	 15.876160	-23.451110	 17.738620	-1.949420	-19.438850	-21.327710	-51.353260	-23.119590	-2.027600	 6.559038	 9.033609	-5.188889	 0.308190	 3.541030	-5.234859	 0.342567	 0.430617	 2.442417	 24.058320	-7.723573	 2.927466	-20.645660	 1.245021	 91.689800	 61.040430	-175.550200	-8.553474	 19.155530	 8.487258	-17.218290	-7.698969	 42.352730	 9.959534	-49.786000	 17.274490	 1.803333	 3.979147	-15.098590	 4.898592	 3.004813	-9.310344	 5.224449	 0.395017	 2.014677
-0.009887	 0.127514	 1.277605	 4.261869	 22.499850	 0.228196	-8.712550	-32.650250	 174.582100	 3.656937	-15.388200	 1.082629	-4.460287	 65.231400	 3.261701	-2.385833	 28.452750	 0.000004	 5.064033	-31.311150	-176.749300	-1.976369	-13.897630	 0.762107	 7.521713	 64.713500	-0.505285	 2.384659	 28.388700	-0.000001	-8.720387	 9.863421	 1.192276	-3.554892	-16.967090	-0.660042	 4.417821	 18.831350	-1.799022	-94.489160	 67.342970	 171.842500	 6.355960	 19.187600	-32.721770	 17.637080	-0.564414	-10.498080	-24.725600	-53.392740	-27.020910	-2.027600	 6.559038	 9.033609	-5.188889	 0.308190	 3.541030	-5.234859	 0.342567	 0.430617	 1.819612	 23.131080	-6.403756	 2.684615	-21.273760	 0.581309	 92.548700	 62.122390	-173.294600	-11.701380	 23.686520	 14.138030	-16.124400	-6.788104	 43.648210	 14.428460	-51.836680	 21.455510	 1.803333	 3.979147	-15.098590	 4.898592	 3.004813	-9.310344	 5.224449	 0.395017	 2.014677
-0.013170	 0.146492	 1.271561	 3.670840	 24.677770	 0.062406	-8.468339	-37.844590	 174.171900	 3.739485	-19.520770	 1.390895	-4.783029	 66.327260	 3.631193	-2.385833	 28.452750	 0.000004	 6.089285	-37.017450	-175.998900	-2.465075	-18.991890	 0.873124	 9.318624	 66.183540	-2.018369	 2.384659	 28.388700	-0.000001	-9.230585	 11.787060	 1.173475	-2.767555	-11.978940	 0.802506	 4.447792	 17.142520	-2.249474	-94.492430	 70.272780	 169.875500	 7.721371	 20.963060	-41.683730	 16.756850	 0.353003	-5.014165	-28.779910	-55.006790	-30.840080	-2.027600	 6.559038	 9.033609	-5.188889	 0.308190	 3.541030	-5.234859	 0.342567	 0.430617	 1.111492	 21.560340	-5.977452	 2.670551	-21.493660	 0.421610	 93.061390	 64.189670	-171.349800	-13.792900	 27.504680	 22.693490	-14.868830	-5.374531	 43.578290	 20.871630	-53.155080	 26.372660	 1.803333	 3.979147	-15.098590	 4.898592	 3.004813	-9.310344	 5.224449	 0.395017	 2.014677
